<svg width="71" height="30" viewBox="0 0 71 30" fill="none" xmlns="http://www.w3.org/2000/svg">
<path d="M13.4878 22.1835C13.1657 21.6344 13.0428 21.0767 13.1191 20.5104C13.1954 19.9441 13.3776 19.4036 13.6659 18.8888C13.9541 18.374 14.3102 17.8892 14.734 17.4345C15.1579 16.9797 15.5648 16.5807 15.9548 16.2375C17.0738 15.2422 18.2606 14.3413 19.5152 13.5348C20.7699 12.7283 22.05 11.9646 23.3555 11.2439C24.661 10.5232 25.9792 9.84107 27.3102 9.19756C28.6411 8.55406 29.9933 7.94916 31.3666 7.38287C32.0109 7.10831 32.6636 6.85091 33.3249 6.61067C33.9861 6.37042 34.6558 6.15592 35.334 5.96716C35.5375 5.91568 35.7791 5.84704 36.0588 5.76124C36.3386 5.67544 36.6226 5.61967 36.9108 5.59392C37.199 5.56818 37.4745 5.58105 37.7373 5.63254C38.0001 5.68402 38.2163 5.81272 38.3858 6.01864C38.5554 6.22456 38.6571 6.45193 38.691 6.70076C38.7249 6.94958 38.7249 7.20698 38.691 7.47297C38.6571 7.73895 38.5935 8.00493 38.5003 8.27091C38.407 8.5369 38.3265 8.77285 38.2587 8.97877C37.9874 9.6995 37.6822 10.3988 37.3431 11.0766C37.004 11.7544 36.6649 12.428 36.3258 13.0972L34.2404 16.8553C35.3594 16.8725 36.4657 16.8853 37.5593 16.8939C38.6529 16.9025 39.7592 16.9068 40.8782 16.9068C41.0138 16.9068 41.1579 16.9197 41.3105 16.9454C41.4631 16.9711 41.5945 17.0226 41.7047 17.0998C41.8149 17.1771 41.8912 17.2757 41.9336 17.3958C41.976 17.516 41.9718 17.6704 41.9209 17.8592C41.8531 18.0308 41.7471 18.1552 41.603 18.2324C41.4589 18.3096 41.2936 18.3525 41.1071 18.3611C40.9206 18.3697 40.7341 18.3654 40.5476 18.3482C40.3611 18.3311 40.2 18.3225 40.0644 18.3225L33.4775 18.2195C33.1723 18.7687 32.8756 19.3178 32.5873 19.8669C32.2991 20.416 32.0193 20.9737 31.7481 21.54C31.6124 21.8318 31.4853 22.1192 31.3666 22.4023C31.2479 22.6855 31.1631 22.9901 31.1123 23.3161C31.0614 23.6422 30.9215 23.8695 30.6926 23.9982C30.4638 24.1269 30.2094 24.1999 29.9297 24.217C29.6499 24.2342 29.3575 24.217 29.0523 24.1655C28.7471 24.1141 28.4928 24.0626 28.2893 24.0111C26.8651 23.6336 25.4621 23.1231 24.0803 22.4796C22.6985 21.836 21.3972 21.1024 20.1765 20.2788C19.973 20.1415 19.7314 19.9441 19.4517 19.6867C19.1719 19.4293 18.943 19.1591 18.765 18.8759C18.587 18.5928 18.5107 18.3139 18.5361 18.0394C18.5615 17.7648 18.7862 17.5417 19.2101 17.3701C19.6678 17.1985 20.1595 17.0998 20.6851 17.0741C21.2107 17.0484 21.7194 17.0183 22.211 16.984C22.8892 16.9497 23.5674 16.9239 24.2456 16.9068C24.9238 16.8896 25.6105 16.8725 26.3056 16.8553C27.3568 16.8381 28.4038 16.8338 29.4465 16.8424C30.4892 16.851 31.5446 16.8553 32.6128 16.8553L33.2231 15.7742C33.63 15.0192 34.037 14.2727 34.4439 13.5348C34.8508 12.7969 35.2492 12.0504 35.6392 11.2954C35.8257 10.9007 36.0164 10.5017 36.2114 10.0985C36.4064 9.69521 36.5886 9.28766 36.7582 8.87581C36.843 8.63557 36.9616 8.34385 37.1142 8.00064C37.2668 7.65744 37.3262 7.33997 37.2923 7.04825C37.0719 6.99677 36.8218 6.99677 36.542 7.04825C36.2623 7.09973 35.9825 7.16837 35.7028 7.25417C35.423 7.33997 35.156 7.43436 34.9017 7.53732C34.6473 7.64028 34.4184 7.72608 34.215 7.79472C33.5198 8.03496 32.8374 8.28378 32.1677 8.54119C31.498 8.79859 30.8325 9.07315 30.1713 9.36488C28.7301 9.98264 27.3187 10.639 25.9368 11.334C24.555 12.029 23.2029 12.7883 21.8804 13.612C21.287 13.9724 20.6936 14.3413 20.1002 14.7189C19.5068 15.0964 18.9218 15.5039 18.3454 15.9415C17.7689 16.3791 17.2221 16.8381 16.705 17.3186C16.1879 17.7991 15.7259 18.3225 15.319 18.8888C15.1833 19.0604 15.0562 19.2491 14.9375 19.4551C14.8188 19.661 14.7213 19.8712 14.645 20.0857C14.5687 20.3002 14.5306 20.519 14.5306 20.7421C14.5306 20.9652 14.5814 21.1797 14.6832 21.3856C14.8018 21.5915 14.8315 21.7889 14.7722 21.9776C14.7128 22.1664 14.6069 22.3122 14.4543 22.4152C14.3017 22.5182 14.1321 22.5568 13.9456 22.531C13.7591 22.5053 13.6065 22.3895 13.4878 22.1835ZM31.8752 18.2195C30.6884 18.2024 29.5058 18.1895 28.3275 18.1809C27.1491 18.1723 25.975 18.1852 24.8051 18.2195C24.1778 18.2367 23.5547 18.2539 22.9359 18.271C22.317 18.2882 21.7024 18.3311 21.092 18.3997L19.9985 18.5542C20.185 18.7601 20.4308 18.9488 20.736 19.1204C21.0412 19.292 21.2785 19.4293 21.4481 19.5323C21.9059 19.824 22.3721 20.09 22.8468 20.3302C23.3216 20.5705 23.8048 20.8107 24.2965 21.051C24.8051 21.2912 25.3138 21.51 25.8224 21.7073C26.331 21.9047 26.8566 22.0977 27.3992 22.2865C27.5179 22.3208 27.6747 22.3766 27.8697 22.4538C28.0647 22.531 28.2724 22.5997 28.4928 22.6597C28.7132 22.7198 28.9294 22.7713 29.1413 22.8142C29.3532 22.8571 29.544 22.8614 29.7135 22.827C29.7813 22.3294 29.9424 21.836 30.1967 21.347C30.451 20.8579 30.6969 20.3989 30.9342 19.9699L31.8752 18.2195Z" fill="white"/>
<path d="M53.8231 10.0344C53.0432 10.6865 52.2718 11.3515 51.5088 12.0293C50.7459 12.7071 49.9998 13.4064 49.2708 14.1271C48.9147 14.4703 48.546 14.8221 48.1645 15.1825C47.783 15.5428 47.41 15.9161 47.0455 16.3022C46.681 16.6883 46.3376 17.0916 46.0155 17.512C45.6934 17.9324 45.4306 18.3657 45.2271 18.8119C45.8205 18.6917 46.4012 18.4944 46.9692 18.2198C47.5372 17.9453 48.1094 17.705 48.6859 17.4991C49.025 17.379 49.3683 17.2717 49.7159 17.1774C50.0634 17.083 50.4152 17.0186 50.7713 16.9843H51.0256C51.246 17.0015 51.4156 17.0572 51.5343 17.1516C51.6529 17.246 51.7335 17.3661 51.7759 17.512C51.8182 17.6578 51.831 17.8166 51.814 17.9882C51.797 18.1598 51.7716 18.3314 51.7377 18.503C51.8903 18.4687 52.0387 18.4472 52.1828 18.4386C52.3269 18.43 52.4498 18.4086 52.5515 18.3743C52.9754 18.2713 53.4077 18.1426 53.8486 17.9882C54.4081 17.7994 54.9718 17.6149 55.5398 17.4348C56.1078 17.2546 56.6885 17.1216 57.2819 17.0358C57.4514 17.0186 57.6337 17.0358 57.8287 17.0873C58.0237 17.1387 58.1847 17.2245 58.3119 17.3447C58.4391 17.4648 58.5069 17.6064 58.5154 17.7694C58.5238 17.9324 58.4179 18.0997 58.1975 18.2713C58.0788 18.3571 57.9558 18.4 57.8287 18.4C57.7015 18.4 57.5701 18.4086 57.4345 18.4258C57.1802 18.4601 56.9258 18.503 56.6715 18.5545C56.4172 18.6059 56.1714 18.666 55.934 18.7346C55.4254 18.8719 54.921 19.0178 54.4208 19.1722C53.9206 19.3267 53.4247 19.4897 52.933 19.6613C52.6448 19.7643 52.3099 19.8801 51.9284 20.0088C51.547 20.1375 51.1952 20.1504 50.873 20.0474C50.517 19.9101 50.3135 19.6999 50.2626 19.4168C50.2118 19.1336 50.2203 18.8462 50.2881 18.5545C49.8303 18.6403 49.3895 18.769 48.9656 18.9406C48.5417 19.1122 48.1179 19.2838 47.694 19.4554C47.2362 19.6441 46.753 19.8415 46.2444 20.0474C45.7357 20.2533 45.2271 20.3477 44.7185 20.3305C44.1759 20.2962 43.8453 20.1418 43.7266 19.8672C43.6079 19.5927 43.6164 19.258 43.752 18.8633C43.1925 19.1036 42.6076 19.331 41.9972 19.5455C41.3869 19.76 40.785 19.8844 40.1915 19.9187C40.005 19.9187 39.8355 19.9015 39.6829 19.8672C39.5303 19.8329 39.3862 19.7471 39.2506 19.6098C39.0301 19.3867 38.9454 19.1594 38.9962 18.9277C39.0471 18.696 39.1615 18.4729 39.3396 18.2584C39.5176 18.0439 39.7253 17.8509 39.9627 17.6793C40.2 17.5077 40.4035 17.379 40.573 17.2932C41.1834 16.9843 41.8362 16.7955 42.5313 16.7269C43.2264 16.6583 43.9046 16.7097 44.5659 16.8813C44.5828 16.8985 44.6082 16.9071 44.6422 16.9071C44.71 16.8728 44.7736 16.8513 44.8329 16.8427C44.8922 16.8341 44.9473 16.8213 44.9982 16.8041C45.2356 16.4952 45.4772 16.2035 45.723 15.9289C45.9689 15.6544 46.1978 15.4013 46.4097 15.1696C46.6216 14.9379 46.8081 14.7406 46.9692 14.5776C47.1303 14.4146 47.2447 14.2987 47.3125 14.2301C47.9907 13.5437 48.6816 12.8744 49.3852 12.2223C50.0889 11.5703 50.8052 10.9268 51.5343 10.2918C51.7547 10.0859 52.0132 9.82421 52.3099 9.50675C52.6066 9.18928 52.9076 8.98765 53.2128 8.90185C53.3823 8.85037 53.5307 8.85466 53.6578 8.91472C53.785 8.97478 53.8825 9.06916 53.9503 9.19786C54.0181 9.32657 54.0435 9.46814 54.0266 9.62258C54.0096 9.77702 53.9418 9.9143 53.8231 10.0344ZM59.0621 12.1709C59.0621 12.3596 59.0367 12.5055 58.9858 12.6085C58.935 12.7114 58.8587 12.7843 58.757 12.8272C58.6552 12.8701 58.5365 12.883 58.4009 12.8659C58.2653 12.8487 58.1296 12.823 57.994 12.7886C57.994 13.1147 57.8753 13.3978 57.6379 13.6381C57.4684 13.8097 57.2098 13.9469 56.8623 14.0499C56.5147 14.1529 56.1375 14.2129 55.7305 14.2301C55.3236 14.2473 54.9167 14.2258 54.5098 14.1657C54.1029 14.1057 53.7468 13.9984 53.4417 13.844C53.1365 13.6895 52.9161 13.4836 52.7804 13.2262C52.6448 12.9688 52.6533 12.6514 52.8059 12.2738C52.9245 11.9478 53.1238 11.6947 53.4035 11.5145C53.6833 11.3343 53.9969 11.2013 54.3445 11.1155C54.6921 11.0297 55.0481 10.9782 55.4126 10.9611C55.7772 10.9439 56.1035 10.9439 56.3918 10.9611C56.5613 10.9611 56.7945 10.9782 57.0912 11.0126C57.3879 11.0469 57.6803 11.1069 57.9686 11.1927C58.2568 11.2785 58.5069 11.3987 58.7188 11.5531C58.9307 11.7075 59.0452 11.9135 59.0621 12.1709ZM57.0784 12.9173C57.1463 12.7286 57.1039 12.5656 56.9513 12.4283C56.9174 12.4111 56.8919 12.4025 56.875 12.4025C56.858 12.4025 56.8411 12.394 56.8241 12.3768C56.6376 12.3425 56.4045 12.3039 56.1247 12.261C55.845 12.2181 55.5568 12.1966 55.26 12.1966C54.9633 12.1966 54.6878 12.2352 54.4335 12.3124C54.1792 12.3897 53.9927 12.5141 53.874 12.6857C53.874 12.7028 53.8655 12.72 53.8486 12.7372C53.8825 12.8744 54.0054 12.9817 54.2173 13.0589C54.4293 13.1361 54.6624 13.1919 54.9167 13.2262C55.171 13.2605 55.4169 13.2777 55.6542 13.2777C55.8916 13.2777 56.0527 13.2777 56.1375 13.2777C56.307 13.2434 56.4723 13.2048 56.6334 13.1619C56.7944 13.119 56.9428 13.0375 57.0784 12.9173Z" fill="white"/>
<path d="M65.8271 10.8064C65.0472 11.3555 64.3012 11.9433 63.5891 12.5696C62.877 13.1959 62.1904 13.8523 61.5291 14.5387C61.1731 14.9163 60.8255 15.2981 60.4864 15.6842C60.1473 16.0703 59.8167 16.4693 59.4946 16.8811C59.4267 16.9669 59.3292 17.0827 59.2021 17.2286C59.0749 17.3745 58.9393 17.5375 58.7952 17.7177C58.6511 17.8978 58.5197 18.0823 58.401 18.2711C58.2823 18.4598 58.189 18.64 58.1212 18.8116C58.4095 18.743 58.6934 18.6529 58.9732 18.5413C59.253 18.4298 59.5369 18.314 59.8252 18.1938C60.2999 18.0051 60.7789 17.8163 61.2621 17.6276C61.7453 17.4388 62.2327 17.2844 62.7244 17.1642C62.9448 17.1128 63.2246 17.0527 63.5637 16.9841C63.9028 16.9154 64.1825 16.9583 64.4029 17.1128C64.5725 17.2329 64.6742 17.3616 64.7081 17.4989C64.742 17.6361 64.7293 17.7648 64.67 17.885C64.6106 18.0051 64.5174 18.1166 64.3902 18.2196C64.2631 18.3226 64.1232 18.3912 63.9706 18.4255C63.6824 18.4942 63.3899 18.5542 63.0932 18.6057C62.7965 18.6572 62.504 18.7344 62.2158 18.8374C61.5376 19.0776 60.8721 19.3436 60.2194 19.6353C59.5666 19.927 58.8842 20.1415 58.1721 20.2788C57.9347 20.3131 57.6931 20.3088 57.4473 20.2659C57.2014 20.223 57.0022 20.0901 56.8496 19.867C56.6123 19.5238 56.5614 19.1248 56.697 18.67C56.8327 18.2153 57.0488 17.7648 57.3455 17.3187C57.6423 16.8725 57.9686 16.4564 58.3247 16.0703C58.6807 15.6842 58.9605 15.3796 59.1639 15.1565C59.8591 14.3843 60.5754 13.6421 61.313 12.93C62.0505 12.2178 62.8177 11.5357 63.6146 10.8836C63.8519 10.6948 64.119 10.4589 64.4157 10.1758C64.7124 9.89261 65.0048 9.71672 65.2931 9.64808C65.4626 9.5966 65.611 9.60947 65.7381 9.68669C65.8653 9.76391 65.9585 9.86687 66.0179 9.99557C66.0772 10.1243 66.0942 10.2658 66.0688 10.4203C66.0433 10.5747 65.9628 10.7034 65.8271 10.8064Z" fill="white"/>
<path fill-rule="evenodd" clip-rule="evenodd" d="M5.11185 5.58105L8.67234 11.4498L8.51974 17.6018L4.47604 23.9596H0L6.33259 14.3328L0.483209 5.58105H5.11185Z" fill="white"/>
<path d="M65.141 0.348633H14.1313C11.0857 0.348633 8.6167 2.84751 8.6167 5.93003V24.0696C8.6167 27.1521 11.0857 29.651 14.1313 29.651H65.141C68.1866 29.651 70.6555 27.1521 70.6555 24.0696V5.93003C70.6555 2.84751 68.1866 0.348633 65.141 0.348633Z" stroke="white"/>
</svg>
