<?xml version="1.0" standalone="no"?>
<svg id="Logo" width="72" height="32" viewBox="0 0 72 32" fill="none" xmlns="http://www.w3.org/2000/svg" style="max-width: 100%; max-height: 100%;">
<path d="M13.7276 23.1838C13.4055 22.6347 13.2825 22.077 13.3588 21.5107C13.4351 20.9444 13.6174 20.4038 13.9056 19.889C14.1938 19.3742 14.5499 18.8894 14.9738 18.4347C15.3976 17.98 15.8045 17.581 16.1945 17.2378C17.3135 16.2425 18.5003 15.3416 19.755 14.535C21.0096 13.7285 22.2897 12.9649 23.5952 12.2442C24.9007 11.5234 26.219 10.8413 27.5499 10.1978C28.8809 9.5543 30.233 8.94941 31.6063 8.38312C32.2506 8.10856 32.9034 7.85115 33.5646 7.61091C34.2258 7.37067 34.8956 7.15617 35.5737 6.9674C35.7772 6.91592 36.0188 6.84728 36.2986 6.76148C36.5783 6.67568 36.8623 6.61991 37.1505 6.59417C37.4388 6.56843 37.7143 6.5813 37.9771 6.63278C38.2399 6.68426 38.456 6.81296 38.6256 7.01888C38.7951 7.22481 38.8969 7.45218 38.9308 7.701C38.9647 7.94982 38.9647 8.20723 38.9308 8.47321C38.8969 8.73919 38.8333 9.00518 38.74 9.27116C38.6468 9.53714 38.5662 9.77309 38.4984 9.97902C38.2272 10.6997 37.922 11.399 37.5829 12.0768C37.2438 12.7547 36.9047 13.4282 36.5656 14.0975L34.4802 17.8555C35.5992 17.8727 36.7055 17.8856 37.799 17.8942C38.8926 17.9027 39.9989 17.907 41.1179 17.907C41.2536 17.907 41.3977 17.9199 41.5503 17.9456C41.7029 17.9714 41.8343 18.0229 41.9445 18.1001C42.0547 18.1773 42.131 18.276 42.1734 18.3961C42.2158 18.5162 42.2115 18.6707 42.1606 18.8594C42.0928 19.031 41.9869 19.1554 41.8427 19.2326C41.6986 19.3099 41.5333 19.3528 41.3468 19.3614C41.1603 19.3699 40.9738 19.3656 40.7873 19.3485C40.6008 19.3313 40.4397 19.3227 40.3041 19.3227L33.7172 19.2198C33.412 19.7689 33.1153 20.318 32.8271 20.8672C32.5388 21.4163 32.2591 21.974 31.9878 22.5403C31.8522 22.832 31.725 23.1194 31.6063 23.4026C31.4877 23.6857 31.4029 23.9903 31.352 24.3164C31.3012 24.6424 31.1613 24.8698 30.9324 24.9985C30.7035 25.1272 30.4492 25.2001 30.1694 25.2173C29.8897 25.2344 29.5972 25.2173 29.292 25.1658C28.9868 25.1143 28.7325 25.0628 28.5291 25.0113C27.1049 24.6338 25.7019 24.1233 24.3201 23.4798C22.9382 22.8363 21.637 22.1027 20.4162 21.279C20.2128 21.1417 19.9712 20.9444 19.6914 20.687C19.4117 20.4296 19.1828 20.1593 19.0047 19.8762C18.8267 19.593 18.7504 19.3142 18.7759 19.0396C18.8013 18.765 19.0259 18.542 19.4498 18.3703C19.9076 18.1987 20.3993 18.1001 20.9249 18.0743C21.4505 18.0486 21.9591 18.0186 22.4508 17.9842C23.129 17.9499 23.8072 17.9242 24.4854 17.907C25.1635 17.8899 25.8502 17.8727 26.5454 17.8555C27.5965 17.8384 28.6435 17.8341 29.6862 17.8427C30.7289 17.8513 31.7844 17.8555 32.8525 17.8555L33.4629 16.7745C33.8698 16.0194 34.2767 15.2729 34.6836 14.535C35.0905 13.7972 35.489 13.0507 35.8789 12.2956C36.0654 11.901 36.2562 11.502 36.4511 11.0987C36.6461 10.6955 36.8284 10.2879 36.9979 9.87606C37.0827 9.63581 37.2014 9.34409 37.354 9.00089C37.5066 8.65768 37.5659 8.34022 37.532 8.0485C37.3116 7.99701 37.0615 7.99701 36.7818 8.0485C36.502 8.09998 36.2223 8.16862 35.9425 8.25442C35.6628 8.34022 35.3957 8.4346 35.1414 8.53756C34.8871 8.64052 34.6582 8.72632 34.4547 8.79496C33.7596 9.03521 33.0772 9.28403 32.4074 9.54143C31.7377 9.79883 31.0723 10.0734 30.411 10.3651C28.9699 10.9829 27.5584 11.6393 26.1766 12.3343C24.7948 13.0292 23.4426 13.7886 22.1202 14.6123C21.5268 14.9726 20.9333 15.3416 20.3399 15.7191C19.7465 16.0966 19.1616 16.5042 18.5851 16.9418C18.0087 17.3793 17.4619 17.8384 16.9448 18.3189C16.4276 18.7994 15.9656 19.3227 15.5587 19.889C15.4231 20.0606 15.2959 20.2494 15.1772 20.4553C15.0585 20.6612 14.961 20.8714 14.8848 21.086C14.8085 21.3005 14.7703 21.5192 14.7703 21.7423C14.7703 21.9654 14.8212 22.1799 14.9229 22.3858C15.0416 22.5918 15.0713 22.7891 15.0119 22.9779C14.9526 23.1666 14.8466 23.3125 14.694 23.4154C14.5414 23.5184 14.3719 23.557 14.1854 23.5313C13.9989 23.5055 13.8463 23.3897 13.7276 23.1838ZM32.115 19.2198C30.9281 19.2026 29.7456 19.1897 28.5672 19.1812C27.3889 19.1726 26.2147 19.1855 25.0449 19.2198C24.4175 19.2369 23.7945 19.2541 23.1756 19.2713C22.5568 19.2884 21.9422 19.3313 21.3318 19.4L20.2382 19.5544C20.4247 19.7603 20.6705 19.9491 20.9757 20.1207C21.2809 20.2923 21.5183 20.4296 21.6878 20.5325C22.1456 20.8243 22.6119 21.0902 23.0866 21.3305C23.5613 21.5707 24.0445 21.811 24.5362 22.0512C25.0449 22.2915 25.5535 22.5102 26.0621 22.7076C26.5708 22.9049 27.0964 23.098 27.6389 23.2867C27.7576 23.3211 27.9144 23.3768 28.1094 23.4541C28.3044 23.5313 28.5121 23.5999 28.7325 23.66C28.9529 23.72 29.1691 23.7715 29.381 23.8144C29.593 23.8573 29.7837 23.8616 29.9533 23.8273C30.0211 23.3296 30.1821 22.8363 30.4365 22.3472C30.6908 21.8582 30.9366 21.3991 31.174 20.9701L32.115 19.2198Z" fill="white" stroke-dasharray="0,0,0,165.4686279296875"><animate attributeType="XML" attributeName="stroke-dasharray" repeatCount="1" dur="1.7241379310344827s" values="0,0,0,165.4686279296875; 
          0,82.73431396484375,82.73431396484375,0; 
          165.4686279296875,0,0,0" keyTimes="0; 0.5; 1" fill="freeze"></animate></path>
<path d="M54.0629 11.0344C53.283 11.6865 52.5115 12.3515 51.7486 13.0293C50.9856 13.7071 50.2396 14.4064 49.5105 15.1271C49.1545 15.4703 48.7857 15.8221 48.4042 16.1825C48.0228 16.5428 47.6498 16.9161 47.2852 17.3022C46.9207 17.6883 46.5774 18.0916 46.2552 18.512C45.9331 18.9324 45.6703 19.3657 45.4668 19.8119C46.0603 19.6917 46.641 19.4944 47.2089 19.2198C47.7769 18.9453 48.3491 18.705 48.9256 18.4991C49.2647 18.379 49.608 18.2717 49.9556 18.1774C50.3032 18.083 50.655 18.0186 51.011 17.9843H51.2654C51.4858 18.0015 51.6553 18.0572 51.774 18.1516C51.8927 18.246 51.9732 18.3661 52.0156 18.512C52.058 18.6578 52.0707 18.8166 52.0537 18.9882C52.0368 19.1598 52.0114 19.3314 51.9775 19.503C52.13 19.4687 52.2784 19.4472 52.4225 19.4386C52.5666 19.43 52.6896 19.4086 52.7913 19.3743C53.2151 19.2713 53.6475 19.1426 54.0883 18.9882C54.6478 18.7994 55.2116 18.6149 55.7795 18.4348C56.3475 18.2546 56.9282 18.1216 57.5216 18.0358C57.6912 18.0186 57.8735 18.0358 58.0684 18.0873C58.2634 18.1387 58.4245 18.2245 58.5516 18.3447C58.6788 18.4648 58.7466 18.6064 58.7551 18.7694C58.7636 18.9324 58.6576 19.0997 58.4372 19.2713C58.3185 19.3571 58.1956 19.4 58.0684 19.4C57.9413 19.4 57.8099 19.4086 57.6742 19.4258C57.4199 19.4601 57.1656 19.503 56.9113 19.5545C56.657 19.6059 56.4111 19.666 56.1737 19.7346C55.6651 19.8719 55.1607 20.0178 54.6605 20.1722C54.1604 20.3267 53.6644 20.4897 53.1728 20.6613C52.8845 20.7643 52.5497 20.8801 52.1682 21.0088C51.7867 21.1375 51.4349 21.1504 51.1128 21.0474C50.7567 20.9101 50.5533 20.6999 50.5024 20.4168C50.4515 20.1336 50.46 19.8462 50.5278 19.5545C50.07 19.6403 49.6292 19.769 49.2054 19.9406C48.7815 20.1122 48.3576 20.2838 47.9338 20.4554C47.476 20.6441 46.9928 20.8415 46.4841 21.0474C45.9755 21.2533 45.4668 21.3477 44.9582 21.3305C44.4157 21.2962 44.085 21.1418 43.9664 20.8672C43.8477 20.5926 43.8561 20.258 43.9918 19.8633C43.4323 20.1036 42.8473 20.331 42.237 20.5455C41.6266 20.76 41.0247 20.8844 40.4313 20.9187C40.2448 20.9187 40.0752 20.9015 39.9227 20.8672C39.7701 20.8329 39.6259 20.7471 39.4903 20.6098C39.2699 20.3867 39.1851 20.1594 39.236 19.9277C39.2868 19.696 39.4013 19.4729 39.5793 19.2584C39.7573 19.0439 39.965 18.8509 40.2024 18.6793C40.4398 18.5077 40.6432 18.379 40.8128 18.2932C41.4231 17.9843 42.0759 17.7955 42.771 17.7269C43.4662 17.6583 44.1444 17.7097 44.8056 17.8813C44.8226 17.8985 44.848 17.9071 44.8819 17.9071C44.9497 17.8728 45.0133 17.8513 45.0726 17.8427C45.132 17.8341 45.1871 17.8213 45.238 17.8041C45.4753 17.4952 45.7169 17.2035 45.9628 16.9289C46.2086 16.6544 46.4375 16.4013 46.6494 16.1696C46.8614 15.9379 47.0479 15.7406 47.2089 15.5776C47.37 15.4146 47.4845 15.2987 47.5523 15.2301C48.2305 14.5437 48.9214 13.8744 49.625 13.2223C50.3286 12.5703 51.0449 11.9268 51.774 11.2918C51.9944 11.0859 52.253 10.8242 52.5497 10.5067C52.8464 10.1893 53.1473 9.98765 53.4525 9.90185C53.6221 9.85037 53.7704 9.85466 53.8976 9.91472C54.0247 9.97478 54.1222 10.0692 54.19 10.1979C54.2579 10.3266 54.2833 10.4681 54.2663 10.6226C54.2494 10.777 54.1816 10.9143 54.0629 11.0344ZM59.3019 13.1709C59.3019 13.3596 59.2765 13.5055 59.2256 13.6085C59.1747 13.7114 59.0984 13.7843 58.9967 13.8272C58.895 13.8701 58.7763 13.883 58.6407 13.8659C58.505 13.8487 58.3694 13.823 58.2337 13.7886C58.2337 14.1147 58.1151 14.3978 57.8777 14.6381C57.7081 14.8097 57.4496 14.9469 57.102 15.0499C56.7544 15.1529 56.3772 15.2129 55.9703 15.2301C55.5634 15.2473 55.1565 15.2258 54.7495 15.1657C54.3426 15.1057 53.9866 14.9984 53.6814 14.844C53.3762 14.6895 53.1558 14.4836 53.0202 14.2262C52.8845 13.9688 52.893 13.6514 53.0456 13.2738C53.1643 12.9478 53.3635 12.6947 53.6433 12.5145C53.923 12.3343 54.2367 12.2013 54.5842 12.1155C54.9318 12.0297 55.2879 11.9782 55.6524 11.9611C56.0169 11.9439 56.3433 11.9439 56.6315 11.9611C56.8011 11.9611 57.0342 11.9782 57.3309 12.0126C57.6276 12.0469 57.9201 12.1069 58.2083 12.1927C58.4965 12.2785 58.7466 12.3987 58.9586 12.5531C59.1705 12.7075 59.2849 12.9135 59.3019 13.1709ZM57.3182 13.9173C57.386 13.7286 57.3436 13.5656 57.191 13.4283C57.1571 13.4111 57.1317 13.4025 57.1147 13.4025C57.0978 13.4025 57.0808 13.394 57.0639 13.3768C56.8774 13.3425 56.6442 13.3039 56.3645 13.261C56.0847 13.2181 55.7965 13.1966 55.4998 13.1966C55.2031 13.1966 54.9276 13.2352 54.6733 13.3124C54.4189 13.3897 54.2324 13.5141 54.1137 13.6857C54.1137 13.7028 54.1053 13.72 54.0883 13.7372C54.1222 13.8744 54.2451 13.9817 54.4571 14.0589C54.669 14.1361 54.9021 14.1919 55.1565 14.2262C55.4108 14.2605 55.6566 14.2777 55.894 14.2777C56.1314 14.2777 56.2924 14.2777 56.3772 14.2777C56.5467 14.2434 56.7121 14.2048 56.8731 14.1619C57.0342 14.119 57.1825 14.0375 57.3182 13.9173Z" fill="white" stroke-dasharray="0,0,0,94.81832885742188"><animate attributeType="XML" attributeName="stroke-dasharray" repeatCount="1" dur="1.7241379310344827s" values="0,0,0,94.81832885742188; 
          0,47.40916442871094,47.40916442871094,0; 
          94.81832885742188,0,0,0" keyTimes="0; 0.5; 1" fill="freeze"></animate></path>
<path d="M66.0669 11.8066C65.287 12.3558 64.541 12.9435 63.8289 13.5698C63.1168 14.1962 62.4301 14.8526 61.7689 15.539C61.4128 15.9165 61.0652 16.2983 60.7262 16.6844C60.3871 17.0705 60.0564 17.4695 59.7343 17.8813C59.6665 17.9671 59.569 18.083 59.4418 18.2288C59.3147 18.3747 59.179 18.5377 59.0349 18.7179C58.8908 18.8981 58.7594 19.0826 58.6407 19.2713C58.522 19.4601 58.4288 19.6403 58.361 19.8119C58.6492 19.7432 58.9332 19.6531 59.2129 19.5416C59.4927 19.43 59.7767 19.3142 60.0649 19.1941C60.5397 19.0053 61.0186 18.8166 61.5018 18.6278C61.985 18.439 62.4725 18.2846 62.9642 18.1645C63.1846 18.113 63.4643 18.0529 63.8034 17.9843C64.1425 17.9157 64.4223 17.9586 64.6427 18.113C64.8122 18.2331 64.914 18.3618 64.9479 18.4991C64.9818 18.6364 64.9691 18.7651 64.9097 18.8852C64.8504 19.0053 64.7571 19.1169 64.63 19.2198C64.5028 19.3228 64.3629 19.3914 64.2103 19.4258C63.9221 19.4944 63.6296 19.5545 63.3329 19.6059C63.0362 19.6574 62.7438 19.7346 62.4555 19.8376C61.7773 20.0778 61.1119 20.3438 60.4591 20.6356C59.8064 20.9273 59.1239 21.1418 58.4118 21.2791C58.1745 21.3134 57.9329 21.3091 57.687 21.2662C57.4412 21.2233 57.242 21.0903 57.0894 20.8672C56.852 20.524 56.8011 20.125 56.9368 19.6703C57.0724 19.2155 57.2886 18.7651 57.5853 18.3189C57.882 17.8728 58.2084 17.4566 58.5644 17.0705C58.9205 16.6844 59.2002 16.3798 59.4037 16.1567C60.0988 15.3845 60.8152 14.6424 61.5527 13.9302C62.2902 13.2181 63.0574 12.5359 63.8543 11.8839C64.0917 11.6951 64.3587 11.4591 64.6554 11.176C64.9521 10.8929 65.2446 10.717 65.5328 10.6483C65.7024 10.5968 65.8507 10.6097 65.9779 10.6869C66.105 10.7642 66.1983 10.8671 66.2576 10.9958C66.317 11.1245 66.3339 11.2661 66.3085 11.4205C66.2831 11.575 66.2025 11.7037 66.0669 11.8066Z" fill="white" stroke-dasharray="0,0,0,42.84580993652344"><animate attributeType="XML" attributeName="stroke-dasharray" repeatCount="1" dur="1.7241379310344827s" values="0,0,0,42.84580993652344; 
          0,21.42290496826172,21.42290496826172,0; 
          42.84580993652344,0,0,0" keyTimes="0; 0.5; 1" fill="freeze"></animate></path>
<path fill-rule="evenodd" clip-rule="evenodd" d="M5.35208 6.5813L8.91257 12.4501L8.75998 18.602L4.71628 24.9599H0.240234L6.57282 15.333L0.723443 6.5813H5.35208Z" fill="white" stroke-dasharray="0,0,0,51.70722961425781"><animate attributeType="XML" attributeName="stroke-dasharray" repeatCount="1" dur="1.7241379310344827s" values="0,0,0,51.70722961425781; 
          0,25.853614807128906,25.853614807128906,0; 
          51.70722961425781,0,0,0" keyTimes="0; 0.5; 1" fill="freeze"></animate></path>
<path d="M65.3807 1.34888H14.371C11.3254 1.34888 8.85645 3.84775 8.85645 6.93027V25.0698C8.85645 28.1523 11.3254 30.6512 14.371 30.6512H65.3807C68.4263 30.6512 70.8953 28.1523 70.8953 25.0698V6.93027C70.8953 3.84775 68.4263 1.34888 65.3807 1.34888Z" stroke="white" stroke-dasharray="0,0,0,173.16268920898438"><animate attributeType="XML" attributeName="stroke-dasharray" repeatCount="1" dur="1.7241379310344827s" values="0,0,0,173.16268920898438; 
          0,86.58134460449219,86.58134460449219,0; 
          173.16268920898438,0,0,0" keyTimes="0; 0.5; 1" fill="freeze"></animate></path>
<setting>{"type":"direct","speed":29,"random":1,"shift":1,"size":1,"rupture":50}</setting></svg>