<svg width="162" height="42" viewBox="0 0 162 42" fill="none" xmlns="http://www.w3.org/2000/svg">
<g clip-path="url(#clip0_107_95)">
<path fill-rule="evenodd" clip-rule="evenodd" d="M138.005 27.5899L138.66 25.8H135.65L136.117 24.4344H139.377L140.093 22.4596H133.939L133.853 22.7109L134 22.8557C134.159 23.0099 134.152 23.1929 134.015 23.5909L131.451 31.0182H137.203L137.898 29.0302H134.541L135.036 27.5899H138.005ZM130.827 22.4649L127.693 28.615H127.627L127.469 22.4649H124.847L124.744 22.6865L124.97 22.823C125.186 22.9761 125.247 23.1312 125.275 23.5582L125.63 31.0214H128.552L133.265 22.4649H130.827ZM107.32 23.568L100.859 25.6912L100.07 27.8548H105.768L106.51 25.8162H102.559L107.043 24.2995L107.32 23.568ZM121.497 26.8948C121.203 27.7357 120.972 28.2771 120.632 28.6344C120.365 28.9149 120.012 29.1162 119.198 29.1162C118.561 29.1162 118.206 28.8559 118.206 28.3629C118.202 28.0444 118.288 27.5612 118.629 26.6218C118.924 25.7816 119.154 25.2399 119.495 24.8821C119.759 24.602 120.114 24.3999 120.927 24.3999C121.565 24.3999 121.919 24.6603 121.918 25.1514C121.925 25.4731 121.838 25.9565 121.497 26.8948ZM121.36 22.3596H121.089C119.475 22.3596 118.554 22.7943 117.797 23.5967C116.856 24.5917 115.972 27.2795 115.989 28.7025C116.007 30.1523 116.946 31.1574 118.919 31.1574H119.207C120.825 31.1574 121.747 30.7223 122.503 29.92C123.444 28.9233 124.309 26.2363 124.292 24.8154C124.273 23.3654 123.335 22.3596 121.36 22.3596ZM149.555 33.948C143.069 37.2968 134.417 39.1411 125.19 39.1411C115.965 39.1411 107.315 37.2968 100.828 33.948C94.5907 30.726 91.1523 26.5301 91.1523 22.1356C91.1523 17.7374 94.5907 13.5414 100.828 10.3223C107.315 6.9745 115.965 5.12767 125.19 5.12767C134.417 5.12767 143.069 6.9745 149.555 10.3223C155.794 13.5414 159.229 17.7374 159.229 22.1356C159.229 26.5301 155.794 30.726 149.555 33.948ZM150.432 8.62383C143.678 5.13696 134.714 3.2168 125.19 3.2168C115.668 3.2168 106.703 5.13696 99.9501 8.62383C95.9501 10.69 89.2393 15.1926 89.2393 22.1356C89.2393 29.0757 95.9501 33.58 99.9501 35.646C106.701 39.1322 115.665 41.052 125.19 41.052C134.716 41.052 143.679 39.1322 150.432 35.646C154.432 33.58 161.142 29.0776 161.142 22.1356C161.142 15.1911 154.432 10.6895 150.432 8.62383ZM148.646 32.1919C141.667 35.7941 132.987 37.163 125.19 37.163C117.393 37.163 108.715 35.7941 101.735 32.1919C98.0413 30.2841 93.1324 26.7674 93.1324 22.1356C93.1324 17.4998 98.0407 13.9864 101.735 12.0796C108.715 8.47751 117.393 7.10764 125.19 7.10764C132.987 7.10764 141.667 8.47481 148.646 12.0796C152.343 13.9864 157.25 17.499 157.25 22.1356C157.25 26.7691 152.341 30.2841 148.646 32.1919ZM149.008 11.3768C141.922 7.71638 133.1 6.31558 125.19 6.31558C117.28 6.31558 108.46 7.71773 101.372 11.3768C97.3919 13.4309 92.3404 17.1379 92.3404 22.1356C92.3404 27.1297 97.3924 30.8382 101.372 32.8946C108.46 36.5516 117.282 37.9537 125.19 37.9537C133.1 37.9537 141.922 36.5538 149.008 32.8946C152.99 30.8382 158.041 27.1297 158.041 22.1356C158.041 17.1379 152.991 13.4309 149.008 11.3768ZM144.912 25.5706C144.765 25.9365 144.601 26.024 144.392 26.1106C144.246 26.1666 143.947 26.1871 143.657 26.1871H142.53L143.138 24.4188H144.503C144.909 24.4188 145.078 24.6307 145.081 24.8726C145.085 25.0264 145.012 25.3082 144.912 25.5706ZM144.707 22.4649H141.009L140.938 22.6865L141.086 22.833C141.244 22.9886 141.237 23.1723 141.101 23.568L138.516 31.0214H140.879L141.888 28.0637H142.687L143.575 31.0214H145.945L144.833 27.9946C145.479 27.8893 145.803 27.7046 146.127 27.4156C146.574 27.0089 146.883 26.4383 147.138 25.5981C147.511 24.3791 147.286 23.6829 147.047 23.325C146.718 22.833 146.022 22.4649 144.707 22.4649ZM113.44 25.5706C113.292 25.9365 113.129 26.024 112.918 26.1106C112.774 26.1666 112.473 26.1871 112.182 26.1871H111.054L111.667 24.4188H113.03C113.438 24.4188 113.605 24.6307 113.61 24.8726C113.612 25.0264 113.541 25.3082 113.44 25.5706ZM113.237 22.4649H109.54L109.465 22.6865L109.614 22.833C109.772 22.9886 109.766 23.1723 109.628 23.568L107.045 31.0214H109.406L110.415 28.0626L111.214 28.0637L112.103 31.0214H114.475L113.359 27.9946C114.006 27.8893 114.332 27.7046 114.657 27.4156C115.102 27.0089 115.41 26.4383 115.666 25.5981C116.038 24.3791 115.813 23.6829 115.573 23.325C115.244 22.833 114.549 22.4649 113.237 22.4649ZM116.779 14.4235H116.856L116.896 17.0078H115.32L116.779 14.4235ZM110.798 20.6106H113.283L114.359 18.72H116.933L116.959 20.6106H119.214L118.728 12.0587H115.351L115.276 12.279L115.385 12.3878C115.563 12.5618 115.49 12.8127 114.833 13.855L110.798 20.6106ZM104.348 20.6141L110.192 20.6128L110.898 18.573H107.501L109.745 12.0587H106.815L106.742 12.279L106.888 12.4246C107.047 12.5807 107.042 12.7642 106.904 13.1609L104.348 20.6141ZM145.209 15.1265H139.512L138.77 17.1636H142.718L138.234 18.6844L137.957 19.4136L144.418 17.2901L145.209 15.1265ZM133.029 14.0878H133.965C134.603 14.0878 134.954 14.3008 134.963 14.7945C134.968 15.1127 134.883 15.5477 134.552 16.4866C134.26 17.3255 134.027 17.8115 133.694 18.1684C133.429 18.4485 133.074 18.573 132.261 18.573H131.479L133.029 14.0878ZM130.976 13.1609L128.419 20.6141H132.191C133.809 20.6141 134.731 20.2565 135.48 19.4543C136.419 18.4612 137.278 15.8772 137.25 14.4554C137.222 13.0041 136.284 12.0587 134.312 12.0587H130.885L130.813 12.279L130.962 12.4246C131.119 12.5807 131.113 12.7642 130.976 13.1609ZM119.743 20.6106H121.891L123.764 15.0755L124.86 20.6106H127.009L129.938 12.0554L127.692 12.0587L126.127 16.7091L125.233 12.0587H122.206L122.132 12.279L122.28 12.4246C122.439 12.5807 122.432 12.7642 122.296 13.1609L119.743 20.6106Z" fill="white"/>
</g>
<g clip-path="url(#clip1_107_95)">
<path fill-rule="evenodd" clip-rule="evenodd" d="M15.1076 5.1603C15.5874 5.28384 16.0172 5.50489 16.3932 5.76291C15.248 5.21934 14.5891 5.10997 14.5467 5.10398L14.5343 5.10304C14.3547 5.07993 14.2061 5.05261 14.0706 5.02361C14.2923 4.98474 14.498 4.92623 14.6852 4.85373C14.6857 4.85731 14.6857 4.86035 14.6857 4.86298C14.7731 5.06585 15.0045 5.13676 15.1076 5.1603ZM9.42534 5.41323C9.42534 5.41323 9.4739 5.30251 9.48641 5.2756C9.50002 5.24898 9.63417 4.96013 9.96748 4.93293C9.96748 4.93293 10.1604 4.92367 10.4576 4.92367C10.4576 4.92367 10.3123 5.29132 9.74 5.3706C9.74 5.3706 9.51559 5.41072 9.42534 5.41323ZM67.5208 17.7732C67.4022 18.1062 66.8145 18.5506 66.1 18.8066C65.3499 19.0778 63.7853 19.149 62.8815 19.0297C62.8789 19.0297 61.1286 18.8861 59.5951 17.5909C59.1116 17.1822 58.5164 16.7187 57.967 16.2608C57.7254 16.0559 57.1306 15.5754 56.1419 15.4687C55.1118 15.3565 52.5969 15.3011 51.6509 15.0475C51.0188 14.8772 50.2563 14.531 49.2423 13.3168C48.7539 12.7354 48.4071 12.5757 47.7429 12.235C47.7429 12.235 48.2521 12.5622 48.5408 12.9755C48.9571 13.5754 49.1674 14.012 49.3939 14.3314C49.6207 14.6524 49.8774 14.9368 50.2636 15.1881C50.7446 15.5004 51.0449 15.5589 51.5658 15.6287C52.0648 15.6959 53.7481 15.6836 55.1924 15.6664C56.6133 15.648 57.2473 16.0189 57.7142 16.337C58.1465 16.6308 58.8871 17.4718 59.3423 17.8412C59.8853 18.2778 60.2824 18.7243 61.356 19.1616C61.7284 19.3146 62.3385 19.6893 62.3073 20.051C61.825 20.4416 61.2258 20.5442 59.7888 20.2341C59.8903 20.3143 60.6425 20.9528 61.9297 20.6509C61.5413 20.913 61.1609 21.0247 60.7637 21.0074C59.417 20.947 58.0975 19.606 57.358 19.1106C56.7958 18.7348 56.7308 18.6404 55.7762 18.1062C54.3261 17.2948 51.0728 17.5234 51.0728 17.5234L48.6852 17.6237C44.0352 17.9078 42.0824 14.5786 41.5678 13.8838C41.3882 13.6427 41.2272 13.4481 41.0727 13.2902C40.8355 13.0345 39.5649 11.7022 38.2802 11.2647C38.2802 11.2647 39.5428 12.143 39.4681 12.7238C39.4681 12.7238 38.9447 12.5276 37.5218 12.6918C31.3963 13.3974 29.3115 12.1583 29.3115 12.1583C29.5959 11.166 28.7389 10.1475 28.7389 10.1475C29.2114 10.2688 32.2228 11.0913 35.0831 10.6218C35.0831 10.6218 30.4287 10.642 27.1652 8.53776C27.1652 8.53776 29.1961 10.5946 28.7142 11.9414C28.7142 11.9414 28.3809 13.3766 24.8406 12.7979C24.4628 12.7377 24.0179 12.6355 18.7187 11.4471C17.4731 11.1456 17.0429 11.6266 16.8182 11.9153C16.8087 12.3388 16.1914 12.8329 15.8802 12.9877C14.2404 12.749 14.8936 11.5191 14.8936 11.5191C13.8615 12.7123 14.9425 13.2393 15.2846 13.2769C15.0802 13.3573 14.8863 13.415 14.7221 13.4641C14.7221 13.4641 13.382 12.8191 14.1306 11.762C15.1754 10.2884 16.2392 9.81581 18.1895 9.67171C19.0426 9.60577 19.7538 9.55684 20.2953 9.61688C21.7101 9.77478 22.5967 10.4205 24.7156 10.5868C20.2181 9.51621 20.2084 7.41091 20.193 7.37118C20.1923 7.37068 20.1911 7.36678 20.1911 7.36678C19.9419 8.06174 20.0791 8.64683 20.2985 9.14116C20.2362 9.12335 19.253 8.6008 18.8781 8.41668C17.2633 7.61965 15.9887 7.48045 15.9887 7.48045C15.4532 7.42552 15.2037 6.89957 15.2037 6.89957C15.1853 6.87265 15.1661 6.84803 15.1475 6.82281C14.4025 5.79463 13.6664 5.77432 13.6664 5.77432C13.9296 6.06361 14.0292 6.43135 14.0666 6.66081C14.088 6.79289 14.1088 7.03426 14.1081 7.1068C14.0947 8.20464 12.5213 8.55087 12.5213 8.55087C11.4245 9.67572 11.4817 9.69903 11.238 9.72805C10.9929 9.75577 10.4582 9.53552 10.4582 9.53552C10.4166 9.51751 10.4056 9.46858 10.4125 9.43646C10.4259 9.36851 10.4945 9.32538 10.4945 9.32538C10.7002 9.1938 10.868 9.06251 10.868 9.06251C12.0269 8.10447 12.1659 7.63676 12.0228 7.01564C11.7299 5.76991 10.6283 5.91481 10.6283 5.91481C10.092 5.95624 9.87622 6.31368 9.87622 6.31368C9.69225 6.54323 9.30228 7.2457 9.30228 7.2457C9.06285 7.66458 8.81884 7.75914 8.69219 7.77805C8.63686 7.78596 8.53497 7.78446 8.50142 7.78366C8.1289 7.77295 7.84565 7.49486 7.84565 7.49486C7.82844 7.48045 7.81197 7.46564 7.79922 7.45364C7.45828 7.15784 7.70538 6.77158 7.70538 6.77158C8.16456 5.9066 9.05666 5.78102 9.17724 5.76861C9.30228 5.7558 9.71256 5.70757 9.71256 5.70757C10.8456 5.55347 11.3805 4.59983 11.3805 4.59983C10.6167 4.59223 10.2435 4.63296 10.2435 4.63296C9.49207 4.73923 9.2363 5.4549 9.2363 5.4538C8.60009 5.57138 8.61643 5.12949 8.7281 4.9945C8.82788 4.86971 9.20176 4.33956 11.6455 3.88245C11.6455 3.88245 12.8505 3.58936 15.4261 3.68342C15.4261 3.68342 15.4261 3.68342 15.3198 3.84293C15.0923 4.19116 14.1891 4.90904 12.6961 4.64306C12.6961 4.64306 12.709 5.17912 14.3283 5.37115C14.3283 5.37115 15.7928 5.58259 18.2761 7.19556C18.2761 7.19556 17.0882 5.28899 15.0727 4.79526C15.0727 4.79526 14.8212 4.75153 14.9444 4.62405C14.9444 4.62405 16.1354 3.71945 17.7904 3.72025C17.7904 3.72025 22.9531 3.80981 26.2319 6.58235C26.2319 6.58235 26.0883 6.10023 25.5721 5.41708C25.5721 5.41708 25.5721 5.41708 25.3556 5.13239C25.3556 5.13239 25.5522 5.1504 26.0911 5.22185C26.0911 5.22185 28.0618 5.42028 32.6911 6.71244C32.6911 6.71244 36.1592 7.63306 38.0575 8.24186C40.9101 9.16017 48.0575 11.3982 52.6136 13.4061C53.4275 13.7637 61.6686 17.2373 61.6686 17.2373C63.9507 18.0658 65.5306 17.5621 65.5306 17.5621C66.0442 17.4044 66.9759 16.8257 67.3836 17.1531C67.5936 17.3223 67.6215 17.5504 67.5208 17.7732ZM11.146 6.52267C10.8987 6.39089 10.6219 6.36528 10.3716 6.39578C10.4821 6.3335 10.6579 6.32529 10.6579 6.32529C10.7734 6.31483 11.3219 6.2987 11.5759 6.95184C11.4672 6.76453 11.3192 6.61505 11.146 6.52267ZM7.36078 6.60215C7.86322 5.99154 8.51834 5.53157 8.52562 5.52685C8.53434 5.52036 8.54413 5.51475 8.5501 5.50766C8.55953 5.4996 8.56728 5.49113 8.57767 5.48317C8.61682 5.52124 8.66863 5.56001 8.73715 5.59198C8.3554 5.72589 7.36078 6.60215 7.36078 6.60215ZM14.6967 3.27315C23.5844 2.85022 36.4919 7.36488 36.6176 7.4108L36.6262 7.41259L36.6335 7.41418C37.715 7.75982 38.7426 8.09758 39.7055 8.42051C39.4782 8.34859 38.3064 7.97427 38.3046 7.97427C36.4175 7.37205 32.9486 6.45497 32.9188 6.4473C28.3703 5.18589 26.382 4.96357 26.2403 4.94893C25.7018 4.8785 25.4966 4.85968 25.4884 4.85938L24.6687 4.78348C24.6687 4.78348 25.1183 5.36857 25.1211 5.37235C21.9104 3.54677 18.0668 3.45483 17.878 3.45115H17.8696C17.0955 3.45115 16.4189 3.62815 15.8946 3.83094C15.9546 3.74239 16.1565 3.43889 16.1565 3.43889L15.5202 3.41658C14.3824 3.37534 13.5027 3.40722 12.8663 3.45762C13.8829 3.30662 14.6753 3.27315 14.6967 3.27315ZM68.03 16.9738C67.6959 16.3736 66.7755 16.5686 66.7755 16.5686C66.3402 16.6418 65.8441 17.0443 65.106 17.2206C63.5222 17.5994 62.2573 17.1587 62.2573 17.1587C59.8186 16.308 51.9782 12.6846 47.9914 11.1017C47.9914 11.1017 43.4181 9.25052 36.6963 7.10224C36.6963 7.10224 23.6928 2.48989 14.6143 2.92439C14.6143 2.92439 9.90801 3.09327 8.43588 4.81935C8.43588 4.81935 8.18458 5.04989 8.32744 5.29931C8.32744 5.29931 8.35517 5.37096 8.29624 5.41863C8.29624 5.41863 7.50509 5.99112 7.10239 6.49976C6.9609 6.68463 6.80368 6.99521 7.09398 7.21296C7.09398 7.21296 7.2247 7.2949 7.27942 7.36665C7.39442 7.51814 7.50113 7.74359 7.64361 7.87819C7.84849 8.07615 8.26443 8.41851 8.84971 8.33627C9.06561 8.30599 9.11203 8.24024 9.11203 8.24024C9.40492 8.47527 9.88078 8.46797 9.88078 8.46797C9.82099 8.31738 9.6171 8.02259 9.58789 7.84421C9.55657 7.64795 9.62725 7.46019 9.62725 7.46019C9.71007 7.23734 9.87421 6.95694 10.0553 6.81534C10.2135 6.68833 10.6196 6.54313 10.9466 6.7255C11.2075 6.8748 11.5187 7.36086 11.2594 8.05487C11.2478 8.10743 10.9623 8.59968 10.6562 8.67443C10.6562 8.67443 10.6275 8.68182 10.5688 8.68182C10.3629 8.68182 9.97919 8.50795 9.97919 8.50795C9.97919 8.50795 9.96904 8.55202 10.0238 8.73179C10.0579 8.83492 10.1031 8.94684 10.1397 9.03438C10.1397 9.03438 10.0651 9.1421 10.0168 9.20475C9.9428 9.31188 9.88053 9.51634 10.0389 9.60947C10.0389 9.60947 10.718 9.98241 11.3769 10.015C11.831 10.0371 12.0029 9.78984 12.0029 9.78984C12.3366 9.4183 12.589 9.10123 12.941 8.84241C13.9043 8.13011 15.2568 7.93895 15.2568 7.93895C15.3466 7.92965 16.8238 7.59789 19.3346 9.21905C18.6175 9.26551 17.764 9.40351 17.1121 9.49705C15.2521 9.76476 14.0584 11.1816 13.711 11.7579C12.807 13.2617 14.6551 13.7801 14.6551 13.7801C14.6724 13.7664 16.4169 13.6556 17.2594 12.1584C17.2594 12.1584 17.5678 11.4953 18.3865 11.7102C18.9218 11.8503 23.6537 13.1854 24.7192 13.4116C24.7192 13.4116 27.8878 14.0774 29.0811 12.9012C30.9884 13.4065 32.7782 13.651 37.4678 13.1625C38.2816 13.0769 38.9217 13.0966 38.9217 13.0966C40.0173 13.1629 41.0169 13.7576 41.3201 14.148C42.5528 15.7413 44.1174 18.906 49.548 18.5207L52.0039 18.3409C53.5028 18.2693 54.7231 18.2218 55.9609 18.7479C56.4999 18.9763 56.7995 19.06 57.7134 19.7644C58.9646 20.7252 60.1165 21.7651 61.6469 21.1977C62.1902 20.996 62.8009 20.2123 62.8009 20.2123C62.7419 19.8545 62.5445 19.5106 62.0578 19.2172C63.4487 19.4839 66.5865 19.6566 67.8011 17.9431C68.1148 17.5438 68.1488 17.188 68.03 16.9738ZM13.4054 4.35962C13.4629 4.36145 13.5273 4.36286 13.6039 4.36404C13.9146 4.36869 14.2649 4.25167 14.4979 4.15235C14.664 4.08121 14.7716 4.01935 14.7576 4.01935C14.542 4.0173 14.1968 4.01449 14.0679 4.01449C13.5074 4.01449 13.2129 4.30478 13.2104 4.33166C13.2083 4.34828 13.2854 4.35519 13.4054 4.35962Z" fill="white"/>
<path fill-rule="evenodd" clip-rule="evenodd" d="M45.7268 23.8066V26.1343C45.7268 26.7369 45.6475 27.213 45.2833 27.6113C44.6911 28.2597 43.6049 28.632 40.5751 28.632L40.5436 28.6323C37.5303 28.6323 36.4387 28.2591 35.8469 27.6121C35.4827 27.2136 35.4041 26.7369 35.4041 26.1345V23.8072H37.489V26.0685C37.489 26.6753 37.5806 27.0318 37.8473 27.345C38.2982 27.8748 39.0767 28.0662 40.4767 28.0662H40.6537C42.118 28.0662 42.8322 27.8747 43.2831 27.3447C43.5498 27.031 43.6418 26.659 43.6418 26.0699V23.8066H45.7268ZM66.3643 24.3661C67.1319 24.3661 67.4722 24.4273 67.7058 24.5769C67.9276 24.7188 68.0069 24.9359 68.0069 25.2734V25.3618C68.0069 25.6665 67.9219 25.9136 67.6605 26.0687C67.4035 26.2207 67.0437 26.2544 66.3892 26.2544H62.3293V24.3661H66.3643ZM67.2772 26.837C68.0678 26.8152 68.7378 26.7162 69.2541 26.4854C69.7898 26.2461 70.045 25.7946 70.045 25.3261C70.045 24.7001 69.7076 24.2988 69.093 24.0747C68.5468 23.8752 67.872 23.8066 66.5279 23.8066H60.0067V28.4924H62.11V26.8682H64.8731L68.025 28.4924H70.5876L67.2772 26.837ZM31.066 27.8666V26.341H33.1674V28.4924H27.0569C25.9111 28.4924 25.0084 28.3824 24.327 28.1556C23.1917 27.7773 22.6726 27.0858 22.6726 26.1409C22.6726 25.2486 23.2379 24.6296 23.9574 24.2967C24.7225 23.9423 25.5843 23.8066 27.0198 23.8066H32.9524V24.4323H27.6775C26.547 24.4323 25.9312 24.5735 25.4618 24.8887C25.0447 25.1686 24.8226 25.5881 24.8226 26.1494C24.8222 26.7296 25.0561 27.1583 25.5019 27.4389C25.9726 27.7349 26.6066 27.8663 27.6949 27.8663L31.066 27.8666ZM9.339 23.8066V26.0916C9.339 26.8309 9.13615 27.2791 8.71613 27.6386C7.98299 28.2658 6.5768 28.4924 4.58742 28.4924H0.392578V27.8634H4.25441C5.43934 27.8634 6.24009 27.6995 6.72291 27.3004C7.08855 26.9984 7.25295 26.5774 7.25295 25.9518V23.8066H9.339ZM55.1764 27.4944H48.9935L47.9688 28.4924H46.7591L51.6211 23.8066H53.678L58.5443 28.4924H56.2045L55.1764 27.4944ZM49.4258 26.8839H54.2431L51.8308 24.4361L49.4258 26.8839ZM18.5304 27.4944H12.3476L11.3228 28.4924H10.1132L14.9757 23.8066H17.0317L21.8984 28.4924H19.5588L18.5304 27.4944ZM13.124 26.8839H17.9413L15.5291 24.4361L13.124 26.8839Z" fill="white"/>
</g>
<defs>
<clipPath id="clip0_107_95">
<rect width="71.9416" height="37.9404" fill="white" transform="translate(89.2393 3.2168)"/>
</clipPath>
<clipPath id="clip1_107_95">
<rect width="70.5871" height="31.5274" fill="white"/>
</clipPath>
</defs>
</svg>
