<svg width="40" height="35" viewBox="0 0 40 35" fill="none" xmlns="http://www.w3.org/2000/svg">
<path d="M1.90758 35L0 31.7654L1.0782 30.6043C1.90758 29.4431 2.40521 27.9502 2.40521 26.4573V0H6.13744V26.4573C6.13744 28.7796 5.391 31.019 3.98104 32.8436C3.8981 33.0095 3.73223 33.0924 3.64929 33.2583L1.90758 35Z" fill="white"/>
<path d="M28.1177 26.1256H16.0916V0H12.3594V26.1256V29.609H16.0916H30.1911L28.1177 26.1256Z" fill="white"/>
<path d="M39.9775 29.5261L32.0983 16.5047C33.7571 16.2559 35.3329 15.5095 36.577 14.2654C38.0699 12.7725 38.8993 10.6991 38.8993 8.54265V7.96209C38.8993 3.56635 35.25 0 30.9372 0H22.3945V3.31754H30.7713C33.3424 3.31754 35.4159 5.391 35.4159 7.96209V8.54265C35.4159 9.78673 34.9182 10.9479 34.0888 11.8602C33.2595 12.7725 32.0154 13.2701 30.7713 13.2701H22.3945V16.5877H28.532L36.4111 29.5261H39.9775Z" fill="white"/>
</svg>
