<svg width="41" height="35" viewBox="0 0 41 35" fill="none" xmlns="http://www.w3.org/2000/svg">
<path d="M16.0829 25.6562C15.3052 25.9327 14.4933 26.101 13.6698 26.1564C12.7919 26.1989 11.9422 26.4798 11.2118 26.9687C13.0686 26.9317 15.0304 26.8957 16.9732 26.8517C16.8322 26.6516 16.422 26.0513 16.422 26.0513C16.3308 25.9081 16.2259 25.7741 16.1089 25.6512L16.0829 25.6592M4.91009 11.9033C7.33112 11.9033 11.779 11.8463 16.1689 11.7462C16.6781 11.3461 17.1903 10.9459 17.7306 10.5397C12.8595 10.4117 7.61324 10.3396 4.91009 10.3396C3.77661 10.3396 2.85421 10.6948 2.85421 11.123C2.85421 11.5511 3.77661 11.9063 4.91009 11.9063M5.61039 8.11968C5.61039 8.45882 6.3337 8.73894 7.22208 8.73894C9.98526 8.73894 16.1119 8.6389 20.5858 8.48584C20.9249 8.25374 21.2541 8.01564 21.5782 7.79154C17.0703 7.61647 10.1943 7.50142 7.22208 7.50142C6.3337 7.50142 5.61039 7.77753 5.61039 8.11968ZM25.4749 16.6713C26.0578 17.0108 26.6694 17.2983 27.3026 17.5307C28.5987 17.5579 29.8932 17.4262 31.1573 17.1385C31.1573 16.9715 28.8283 16.8064 25.4749 16.6713ZM3.5255 15.0106C5.56737 15.0106 8.9138 14.9716 12.5543 14.9106C13.0796 14.4104 13.6438 13.9021 14.2391 13.3849C9.95825 13.2959 5.88151 13.2439 3.5265 13.2439C2.23595 13.2439 1.20251 13.644 1.20251 14.1322C1.20251 14.6205 2.23695 15.0146 3.5265 15.0146M26.7994 10.8909C26.4413 11.0709 26.1101 11.254 25.77 11.4311C26.7202 11.4577 27.6698 11.3567 28.5932 11.131C28.0116 10.9575 27.4062 10.8772 26.7994 10.8929M10.8906 6.15784C13.5128 6.15784 21.4862 5.95776 21.4862 5.72166C21.4862 5.48556 13.5048 5.28247 10.8906 5.28247C10.3814 5.28247 9.96325 5.48256 9.96325 5.72166C9.96325 5.96076 10.3814 6.15784 10.8906 6.15784ZM28.058 14.0472C28.02 14.1749 27.9666 14.2976 27.8989 14.4124C28.6907 14.4349 29.4814 14.3371 30.2439 14.1222C29.5536 13.9165 28.8349 13.8223 28.115 13.8431L28.058 14.0472ZM18.1487 28.5814C13.1626 28.4503 7.68927 28.3813 4.91009 28.3813C3.77661 28.3813 2.85421 28.7285 2.85421 29.1647C2.85421 29.6008 3.77661 29.946 4.91009 29.946C7.83734 29.946 13.7449 29.8599 18.9421 29.7139C18.671 29.3487 18.4118 28.9646 18.1477 28.5854M20.5017 31.8018C16.0388 31.6477 9.96324 31.5507 7.21907 31.5507C6.33069 31.5507 5.60739 31.8248 5.60739 32.1639C5.60739 32.5031 6.33069 32.7802 7.21907 32.7802C10.0973 32.7802 16.6311 32.6801 21.139 32.5091C20.9279 32.282 20.7188 32.0419 20.5017 31.8018ZM9.96325 34.5589C9.96325 34.7991 10.3814 35.0001 10.8906 35.0001C13.5048 35.0001 21.4862 34.8001 21.4862 34.5589C21.4862 34.3178 13.5128 34.1198 10.8906 34.1198C10.3814 34.1198 9.96325 34.3198 9.96325 34.5589ZM5.24824 24.0705C5.30236 23.8048 5.41781 23.5554 5.58538 23.3422C5.56237 23.3812 5.54336 23.4102 5.57537 23.3552C5.75345 23.055 5.99555 22.6659 6.28268 22.2247C4.90609 22.2117 3.70458 22.1987 2.75217 22.1987C1.39459 22.1987 0.287125 22.6249 0.287125 23.1411C0.287125 23.6573 1.39459 24.0865 2.75217 24.0865C3.45947 24.0865 4.29583 24.0815 5.25324 24.0705M7.2721 27.0167C6.93295 26.6956 5.81748 25.408 5.67942 25.28C4.85907 25.275 4.12776 25.275 3.5245 25.275C2.23395 25.275 1.20051 25.6672 1.20051 26.1604C1.20051 26.6536 2.23496 27.0427 3.5245 27.0427C4.50892 27.0427 5.79147 27.0327 7.2721 27.0167ZM7.10003 21.0622C7.5002 20.506 7.97107 19.8967 8.51263 19.2344C6.0966 19.1974 3.9867 19.1824 2.51007 19.1824C1.12548 19.1824 0 19.6136 0 20.1408C0 20.668 1.12548 21.0992 2.51007 21.0992C3.69558 21.0992 5.28125 21.0862 7.10403 21.0622M2.76118 18.0799C4.40088 18.0799 6.8149 18.0569 9.56407 18.0119C10.0503 17.4587 10.5825 16.8864 11.1568 16.2832C7.76931 16.2281 4.71901 16.1941 2.76318 16.1941C1.4056 16.1941 0.298124 16.6143 0.298124 17.1345C0.298124 17.6547 1.4056 18.0799 2.76318 18.0799" fill="white"/>
<path d="M31.4128 19.4294C31.4308 19.9096 31.4308 20.3848 31.4048 20.845C26.7588 21.03 22.358 21.3122 22.358 21.6203C22.358 21.9284 26.6598 22.2105 31.2477 22.3956C31.1667 22.9178 31.0627 23.4401 30.9426 23.9493C26.4197 24.1404 22.2199 24.4115 22.2199 24.7146C22.2199 25.0177 26.1426 25.2739 30.4724 25.4589C30.2814 26.0082 30.0572 26.5455 29.8011 27.0676C26.0695 27.2507 22.9922 27.4858 22.9922 27.7469C22.9922 27.992 25.6874 28.2171 29.0778 28.3922C28.8847 28.6973 28.6857 29.0034 28.4776 29.2926C28.2585 29.6007 28.0234 29.9118 27.7623 30.215C25.6444 30.379 24.1867 30.5601 24.1867 30.7502C24.1867 30.9403 25.2342 31.0823 26.8379 31.2234C25.8996 32.1508 24.8454 32.9532 23.7015 33.6104C22.7595 32.7827 21.8819 31.8844 21.0764 30.9233C20.024 29.6327 17.775 26.2353 17.2508 25.4729C16.7266 24.7106 16.3704 24.4905 15.7501 24.7126C15.0782 24.9492 14.3784 25.0975 13.6682 25.1538C13.3681 25.1538 13.2031 25.0368 13.7023 24.8407C15.1507 24.2435 16.3547 23.1742 17.1187 21.8064C18.2002 19.6575 17.2498 16.6952 17.2498 16.6952C17.1117 17.5331 16.6904 18.2983 16.0563 18.8631C16.2029 18.2222 16.2119 17.5576 16.0827 16.9129C15.9536 16.2683 15.6892 15.6584 15.3069 15.1235L14.9068 16.9883C14.9068 16.9883 14.6427 16.9753 14.0164 17.5055C13.6268 17.8493 13.35 18.3025 13.2221 18.8061C13.7133 19.0062 14.3035 18.511 14.3035 18.511C13.738 20.751 12.8493 22.8968 11.6654 24.8807C11.1696 25.7853 10.3776 26.4918 9.42244 26.8815C8.75116 27.1507 8.53406 26.8375 8.53406 26.8375C7.99753 26.3747 7.50213 25.8663 7.05343 25.3179C7.05343 25.3179 7.01642 25.2528 7.13947 25.2578C7.47161 25.2628 8.04585 24.7046 8.17891 24.4695C8.31497 24.2054 8.30697 23.9963 8.22893 23.9833C8.1509 23.9703 8.02885 24.1894 7.41158 24.5836C6.77431 24.9837 6.48719 24.7066 6.2861 24.4835C6.12204 24.3084 6.2781 24.0914 6.38615 23.9533C6.48019 23.8302 9.79461 17.6506 18.5613 11.1618C30.0582 2.64821 37.3944 0.352229 37.8115 0.185158C38.0937 0.0751112 38.5459 -0.0679495 38.6499 0.0360948C38.7037 0.0774688 38.7462 0.131647 38.7736 0.193684C38.8011 0.255721 38.8125 0.323641 38.807 0.391246C38.789 0.527304 38.7209 0.602336 38.1877 0.832434C33.8582 2.88868 29.6823 5.25379 25.6924 7.90945C23.2078 9.17705 20.8164 10.6196 18.5363 12.2263C18.2592 12.3964 18.4583 12.6445 18.6364 12.5444C24.703 8.4967 31.83 5.74153 39.7023 3.48757C40.0835 3.38052 40.2876 3.38052 40.3556 3.46456C40.4149 3.55879 40.4493 3.66653 40.4557 3.77769C40.4657 3.92375 40.3556 4.00279 40.0295 4.12784C31.5679 7.26985 25.3319 10.1888 21.3215 12.8846C21.3215 12.8846 20.9033 13.1377 20.8953 13.4248C20.8953 13.5318 21.1224 13.5499 21.1224 13.5499C23.1333 13.5809 25.8184 13.7009 27.093 13.78C27.093 13.78 26.9079 14.4252 25.6924 14.9445C24.8316 15.2475 23.9167 15.3658 23.0072 15.2916C22.9589 15.2866 22.9102 15.2965 22.8676 15.3199C22.825 15.3432 22.7906 15.3791 22.7688 15.4225C22.7471 15.466 22.7391 15.515 22.746 15.5631C22.7528 15.6112 22.7742 15.6561 22.8071 15.6918C22.8852 15.7918 24.727 18.7551 31.4108 19.4314" fill="white"/>
</svg>
