<svg width="25" height="25" viewBox="0 0 25 25" fill="none" xmlns="http://www.w3.org/2000/svg">
<g clip-path="url(#clip0_854_205)">
<path d="M20.2522 14.206C20.2541 14.5118 20.1612 14.8107 19.9863 15.0615C19.8113 15.3123 19.563 15.5028 19.2753 15.6066L14.4397 17.3935L12.6585 22.2329C12.553 22.5194 12.3621 22.7668 12.1117 22.9414C11.8612 23.1161 11.5632 23.2098 11.2578 23.2098C10.9525 23.2098 10.6545 23.1161 10.404 22.9414C10.1536 22.7668 9.96271 22.5194 9.85722 22.2329L8.06472 17.3935L3.22535 15.6122C2.93878 15.5068 2.69147 15.3159 2.51677 15.0655C2.34208 14.815 2.24841 14.517 2.24841 14.2116C2.24841 13.9063 2.34208 13.6082 2.51677 13.3578C2.69147 13.1073 2.93878 12.9165 3.22535 12.811L8.06472 11.0185L9.84597 6.17912C9.95146 5.89255 10.1423 5.64524 10.3928 5.47054C10.6432 5.29585 10.9412 5.20218 11.2466 5.20218C11.552 5.20218 11.85 5.29585 12.1004 5.47054C12.3509 5.64524 12.5417 5.89255 12.6472 6.17912L14.4397 11.0185L19.2791 12.7997C19.5669 12.9045 19.8151 13.0961 19.9894 13.348C20.1638 13.5999 20.2556 13.8997 20.2522 14.206ZM15.0022 5.20599H16.5022V6.70599C16.5022 6.90491 16.5812 7.09567 16.7219 7.23632C16.8625 7.37698 17.0533 7.45599 17.2522 7.45599C17.4511 7.45599 17.6419 7.37698 17.7826 7.23632C17.9232 7.09567 18.0022 6.90491 18.0022 6.70599V5.20599H19.5022C19.7011 5.20599 19.8919 5.12698 20.0326 4.98632C20.1732 4.84567 20.2522 4.65491 20.2522 4.45599C20.2522 4.25708 20.1732 4.06632 20.0326 3.92566C19.8919 3.78501 19.7011 3.70599 19.5022 3.70599H18.0022V2.20599C18.0022 2.00708 17.9232 1.81632 17.7826 1.67566C17.6419 1.53501 17.4511 1.45599 17.2522 1.45599C17.0533 1.45599 16.8625 1.53501 16.7219 1.67566C16.5812 1.81632 16.5022 2.00708 16.5022 2.20599V3.70599H15.0022C14.8033 3.70599 14.6125 3.78501 14.4719 3.92566C14.3312 4.06632 14.2522 4.25708 14.2522 4.45599C14.2522 4.65491 14.3312 4.84567 14.4719 4.98632C14.6125 5.12698 14.8033 5.20599 15.0022 5.20599ZM23.2522 8.20599H22.5022V7.45599C22.5022 7.25708 22.4232 7.06632 22.2826 6.92566C22.1419 6.78501 21.9511 6.70599 21.7522 6.70599C21.5533 6.70599 21.3625 6.78501 21.2219 6.92566C21.0812 7.06632 21.0022 7.25708 21.0022 7.45599V8.20599H20.2522C20.0533 8.20599 19.8625 8.28501 19.7219 8.42566C19.5812 8.56632 19.5022 8.75708 19.5022 8.95599C19.5022 9.15491 19.5812 9.34567 19.7219 9.48632C19.8625 9.62698 20.0533 9.70599 20.2522 9.70599H21.0022V10.456C21.0022 10.6549 21.0812 10.8457 21.2219 10.9863C21.3625 11.127 21.5533 11.206 21.7522 11.206C21.9511 11.206 22.1419 11.127 22.2826 10.9863C22.4232 10.8457 22.5022 10.6549 22.5022 10.456V9.70599H23.2522C23.4511 9.70599 23.6419 9.62698 23.7826 9.48632C23.9232 9.34567 24.0022 9.15491 24.0022 8.95599C24.0022 8.75708 23.9232 8.56632 23.7826 8.42566C23.6419 8.28501 23.4511 8.20599 23.2522 8.20599Z" fill="white"/>
</g>
<defs>
<clipPath id="clip0_854_205">
<rect width="24" height="24" fill="white" transform="translate(0.752197 0.705994)"/>
</clipPath>
</defs>
</svg>
