<svg width="68" height="35" viewBox="0 0 68 35" fill="none" xmlns="http://www.w3.org/2000/svg">
<path fill-rule="evenodd" clip-rule="evenodd" d="M30.2505 10.9446C32.6617 11.5111 34.5521 13.3571 35.1844 15.7591C35.407 16.6101 36.2754 17.1158 37.1167 16.8919C37.9603 16.6665 38.4637 15.7951 38.2405 14.9453C38.0399 14.1855 37.7551 13.4616 37.3942 12.7879C39.0233 11.1076 41.4006 10.4001 43.6839 10.9357C47.2681 11.7781 49.5065 15.3966 48.6723 19C47.8357 22.6072 44.2388 24.8591 40.6605 24.0232C38.0653 23.4131 36.0834 21.318 35.6096 18.6856C35.4548 17.8203 34.63 17.244 33.7731 17.4026C32.9138 17.5594 32.3432 18.3878 32.4989 19.253C32.6862 20.2943 33.0335 21.2771 33.5148 22.177C31.8988 23.8451 29.5165 24.5669 27.2221 24.0316C23.6408 23.1898 21.4057 19.5704 22.2375 15.9619C22.9564 12.8645 25.707 10.7677 28.7363 10.7677C29.2367 10.7677 29.7442 10.825 30.2505 10.9446ZM35.458 24.7157C36.6915 25.8754 38.226 26.7204 39.9434 27.1228C45.2219 28.3576 50.5179 25.039 51.7505 19.723C52.9801 14.4108 49.6843 9.07701 44.4025 7.83619C41.1789 7.07727 37.8353 8.00098 35.4518 10.2484C34.2175 9.08829 32.6829 8.24772 30.9694 7.84421C25.6908 6.60428 20.3919 9.92085 19.1596 15.2401C17.9311 20.5573 21.2267 25.892 26.5053 27.1308C27.2466 27.3039 27.995 27.3891 28.7354 27.3891C31.2248 27.3891 33.6327 26.4357 35.458 24.7157ZM55.205 33.337V26.8012C56.0734 27.1433 57.0079 27.3775 57.9963 27.3775C63.4176 27.3775 67.8289 22.9359 67.8289 17.4762C67.8289 12.0168 63.4176 7.57698 57.9963 7.57698C55.813 7.57698 53.7459 8.28157 52.0191 9.61354C51.3265 10.148 51.1953 11.1474 51.7263 11.8446C52.2571 12.542 53.2485 12.6751 53.942 12.1397C55.1124 11.2377 56.5145 10.7605 57.9963 10.7605C61.6743 10.7605 64.6676 13.7728 64.6676 17.4762C64.6676 21.1809 61.6743 24.1943 57.9963 24.1943C57.0718 24.1943 56.1212 23.789 55.205 23.283V22.7118C55.205 21.8332 54.497 21.1194 53.6244 21.1194C52.7513 21.1194 52.0445 21.8332 52.0445 22.7118V33.337C52.0445 34.2155 52.7513 34.9281 53.6244 34.9281C54.497 34.9281 55.205 34.2155 55.205 33.337ZM12.9551 27.3775C7.53322 27.3775 3.12305 22.9368 3.12305 17.4783V17.4762C3.12305 12.0168 7.53322 7.57698 12.9551 7.57698H12.9634C12.9666 7.57698 12.9684 7.57698 12.9684 7.57698C12.9716 7.57698 12.9716 7.57698 12.9716 7.57698C15.1487 7.58025 17.209 8.28365 18.9325 9.61354C19.6252 10.148 19.7573 11.1474 19.2265 11.8446C18.6946 12.542 17.702 12.673 17.0097 12.1406C16.8124 11.988 16.608 11.8478 16.3984 11.7199C16.3851 11.7127 16.371 11.7044 16.358 11.6964C15.3359 11.0851 14.1632 10.7626 12.9666 10.7605H12.9563C9.27741 10.7605 6.2853 13.7728 6.28442 17.4774C6.2853 21.1809 9.27741 24.1943 12.9551 24.1943C12.9551 24.1943 12.9583 24.1934 12.9613 24.1943H12.9666C14.1632 24.1922 15.3359 23.8677 16.358 23.2575C16.371 23.2492 16.3851 23.2421 16.3984 23.2337C16.608 23.107 16.8124 22.9656 17.0097 22.8142C17.702 22.2797 18.6946 22.4116 19.2265 23.109C19.7573 23.8074 19.6252 24.8065 18.9325 25.3413C17.209 26.6703 15.1487 27.3746 12.9716 27.3775H12.9551Z" fill="white"/>
<path d="M0.146942 8.05412L0.0481185 8.26412C-0.0507051 8.47412 -0.0012933 8.69647 0.233413 8.79529C0.443413 8.88177 0.739883 8.99294 1.09812 8.99294C1.9486 8.99294 2.70616 8.50509 3.0892 7.58569L5.87871 0.617647C5.98988 0.333529 5.854 0.148235 5.55753 0.148235H5.11282C4.86577 0.148235 4.72988 0.247059 4.65577 0.481765L3.23518 4.24941L3.20382 4.34342C3.10607 4.64678 3.02518 4.99059 3.02518 4.99059H3.00047L2.92494 4.70798C2.884 4.56199 2.83106 4.38412 2.77812 4.23706L1.30812 0.469412C1.234 0.247059 1.08577 0.148235 0.85106 0.148235H0.369295C0.0728244 0.148235 -0.063058 0.333529 0.0604714 0.617647L2.48165 6.32471L2.17282 7.04118C1.97518 7.53529 1.60459 7.98 1.09812 7.98C0.888118 7.98 0.72753 7.89353 0.604001 7.84412C0.43106 7.79471 0.245766 7.83177 0.146942 8.05412ZM6.07957 3.26118C6.07957 5.16353 7.57427 6.54706 9.43957 6.54706C11.3049 6.54706 12.8119 5.16353 12.8119 3.26118C12.8119 1.37118 11.3049 0 9.43957 0C7.57427 0 6.07957 1.37118 6.07957 3.26118ZM7.29016 3.26118C7.29016 1.96412 8.26604 1.03765 9.43957 1.03765C10.6254 1.03765 11.589 1.96412 11.589 3.26118C11.589 4.57059 10.6254 5.50941 9.43957 5.50941C8.26604 5.50941 7.29016 4.57059 7.29016 3.26118ZM13.6428 4.15059C13.6428 5.80588 14.3593 6.54706 15.7675 6.54706C16.9904 6.54706 17.8181 5.69471 18.0898 5.07706H18.1145L18.1023 5.14467C18.0915 5.21192 18.0775 5.32127 18.0775 5.43529V5.99118C18.0775 6.26294 18.2134 6.39882 18.4851 6.39882H18.831C19.0904 6.39882 19.2387 6.26294 19.2387 5.99118V0.555882C19.2387 0.284118 19.0904 0.148235 18.831 0.148235H18.4481C18.1763 0.148235 18.0404 0.284118 18.0404 0.555882V3.07588C18.0404 4.31118 17.2869 5.43529 16.0022 5.43529C15.0369 5.43529 14.8377 4.77533 14.829 3.93887L14.8287 0.555882C14.8287 0.284118 14.6928 0.148235 14.4334 0.148235H14.0504C13.7787 0.148235 13.6428 0.284118 13.6428 0.555882V4.15059ZM20.5513 5.99118V0.555882C20.5513 0.284118 20.6995 0.148235 20.9589 0.148235H21.3048C21.5766 0.148235 21.7125 0.284118 21.7125 0.555882V1.27235C21.7125 1.53176 21.6754 1.74176 21.6754 1.74176H21.7001C21.9719 0.914118 22.676 0.0988235 23.6148 0.0988235C23.8989 0.0988235 24.0101 0.234706 24.0101 0.506471V0.852353C24.0101 1.10813 23.8679 1.24354 23.6143 1.25859L23.5654 1.26C22.3425 1.26 21.7495 2.58177 21.7495 3.81706V5.99118C21.7495 6.26294 21.6136 6.39882 21.3419 6.39882H20.9589C20.6995 6.39882 20.5513 6.26294 20.5513 5.99118Z" fill="white"/>
</svg>
